<svg width="30" height="30" viewBox="0 0 30 30" fill="none" xmlns="http://www.w3.org/2000/svg">
  <path
    d="M22.2724 25.6193H11.4688V23.7991L20.9797 7.94141H27.1049V22.0405H29.9982V25.6193H27.1049V30.0002H22.2724V25.6193ZM22.3648 22.0405V11.7053L16.4551 22.0405H22.3648Z"
    fill="white" />
  <path
    d="M8.24239 21.1765C5.62971 21.1765 3.60799 20.5542 2.17723 19.3097C0.850158 18.1818 0.124413 16.6262 0 14.6427H4.6344C4.75881 15.5761 5.06985 16.2761 5.5675 16.7428C6.08589 17.2873 6.96715 17.5596 8.21129 17.5596C9.33101 17.5596 10.1915 17.229 10.7929 16.5678C11.3942 15.8872 11.6949 14.983 11.6949 13.8551C11.6949 12.7273 11.3735 11.8425 10.7307 11.2008C10.0879 10.5396 9.20659 10.209 8.08687 10.209C6.28288 10.209 4.86249 10.7632 3.82571 11.8717H1.02641L1.33744 0H15.4273V3.58775H5.10095L5.00764 8.80894C6.10663 7.52552 7.7551 6.88381 9.95307 6.88381C11.9644 6.88381 13.6025 7.49635 14.8674 8.72144C16.1323 9.96597 16.7647 11.6966 16.7647 13.9135C16.7647 16.1303 15.9871 17.8901 14.432 19.193C12.8975 20.5153 10.8343 21.1765 8.24239 21.1765Z"
    fill="white" />
</svg>