<svg width="282" height="40" viewBox="0 0 282 40" fill="none" xmlns="http://www.w3.org/2000/svg">
  <path
    d="M243.906 0.630859H254.431L262.956 15.26L271.586 0.630859H282.005L267.271 24.0481V38.7825H258.272V23.9428L243.906 0.630859Z"
    fill="white" />
  <path
    d="M239.752 24.5749H248.593C247.172 33.4156 240.068 39.4672 230.438 39.4672C218.545 39.4672 211.336 31.8895 211.336 19.681C211.336 7.63033 218.756 0 230.701 0C240.226 0 247.067 6.20951 248.33 14.8923H239.489C238.489 9.68262 234.648 7.41984 230.385 7.41984C225.071 7.41984 220.861 11.8928 220.861 19.681C220.861 27.7323 225.018 32.0474 230.491 32.0474C234.437 32.0474 238.595 30.3635 239.752 24.5749Z"
    fill="white" />
  <path
    d="M209.918 38.7825H198.973L183.659 12.471V38.7825H174.977V0.630859H185.922L201.235 26.9423V0.630859H209.918V38.7825Z"
    fill="white" />
  <path
    d="M143.242 38.7825V0.630859H172.501V8.5243H152.241V15.2074H171.395V23.1535H152.241V30.8364H172.501V38.7825H143.242Z"
    fill="white" />
  <path
    d="M122.346 0C130.818 0 137.606 4.26246 139.448 12.5769H130.607C129.765 9.94574 127.134 7.41984 122.24 7.41984C116.715 7.41984 112.4 11.5244 112.4 19.5757C112.4 27.6271 116.346 32.0474 122.398 32.0474C126.555 32.0474 130.87 30.4687 130.87 25.6274V24.8907H121.661V17.5234H139.869V38.7831H132.975L132.712 34.5733C130.239 37.9412 126.503 39.4672 121.03 39.4672C109.821 39.4672 102.875 31.7843 102.875 19.5757C102.875 7.52508 110.768 0 122.346 0Z"
    fill="white" />
  <path
    d="M67.9141 38.7825L82.2801 0.630859H92.1733L106.592 38.7825H96.8041L94.4887 31.9941H79.7542L77.4914 38.7825H67.9141ZM87.1741 10.1556L82.2275 24.6796H92.068L87.1741 10.1556Z"
    fill="white" />
  <path
    d="M48.8806 11.9448L39.8294 23.1009H48.8806V11.9448ZM62.8257 23.1009V30.7312H57.5634V38.7825H48.8806V30.7312H30.3047V23.9428L49.5121 0.630859H57.5634V23.1009H62.8257Z"
    fill="white" />
  <path
    d="M15.3133 33.0466C19.1548 33.0466 22.049 30.626 22.049 26.2056C22.049 21.5222 18.839 19.2594 15.4712 19.2594C12.4716 19.2594 10.2615 20.575 8.9459 23.0482L0.999837 22.2589L3.68361 0.630859H29.2057V7.68234H10.893L9.99836 14.8391C11.8402 13.5761 14.8923 12.8394 17.5761 12.8394C24.4697 12.8394 30.9949 17.3123 30.9949 26.153C30.9949 34.8884 23.7856 39.4666 15.4185 39.4666C7.52508 39.4666 1.26295 35.1515 0 27.0476H8.36705C9.1564 31.4679 11.9454 33.0466 15.3133 33.0466Z"
    fill="white" />
</svg>
  