<svg width="16" height="14" viewBox="0 0 16 14" fill="none" xmlns="http://www.w3.org/2000/svg">
  <path d="M15.9957 1.52288C15.7742 3.84482 14.8144 9.48801 14.3271 12.0891C14.1204 13.1913 13.7069 13.5587 13.3229 13.6028C12.4665 13.6762 11.8168 13.0444 10.9899 12.5006C9.69031 11.6483 8.952 11.1192 7.69689 10.2962C6.23493 9.34104 7.18 8.81199 8.02169 7.95964C8.2432 7.73918 12.0235 4.31509 12.0973 4.00642C12.1076 3.95972 12.1062 3.91117 12.0933 3.86508C12.0804 3.819 12.0564 3.7767 12.0235 3.7419C11.9349 3.6685 11.8168 3.69784 11.7134 3.71255C11.5805 3.7419 9.51316 5.10866 5.48178 7.81267C4.89111 8.20945 4.35956 8.4152 3.88702 8.40049C3.35538 8.38577 2.35129 8.10653 1.59822 7.85673C0.667873 7.56286 -0.0556917 7.40117 0.00337501 6.88684C0.0329039 6.62231 0.402077 6.35779 1.09609 6.07855C5.408 4.21217 8.27271 2.97776 9.70516 2.38994C13.8102 0.68525 14.652 0.391296 15.2131 0.391296C15.3312 0.391296 15.6118 0.420727 15.789 0.567616C15.9367 0.68525 15.981 0.846855 15.9957 0.964401C15.981 1.05261 16.0105 1.31713 15.9957 1.52288Z" fill="#F8F8F8"/>
  </svg>
  